HIERARCHY
ROOT Hips
{
	OFFSET 0.000000 0.000000 0.000000
	CHANNELS 6 Xposition Yposition Zposition Xrotation Yrotation Zrotation
	JOINT LeftUpLeg_virtual
	{
		OFFSET 0.000000 0.000000 0.000000
		CHANNELS 3 Xrotation Yrotation Zrotation
		JOINT LeftUpLeg
		{
			OFFSET 10.205400 -3.823500 0.155100
			CHANNELS 3 Xrotation Yrotation Zrotation
			JOINT LeftLeg
			{
				OFFSET 0.708757 -12.982077 0.567790
				CHANNELS 3 Xrotation Yrotation Zrotation
				JOINT LeftFoot
				{
					OFFSET -0.708756 -10.717838 -2.184338
					CHANNELS 3 Xrotation Yrotation Zrotation
					JOINT LeftToeBase
					{
						OFFSET 0.108149 -7.191104 7.560241
						CHANNELS 3 Xrotation Yrotation Zrotation
						JOINT LeftToe_End
						{
							OFFSET 0.070230 0.081724 4.490308
							CHANNELS 3 Xrotation Yrotation Zrotation
							End Site
							{
								OFFSET 0 0 0
							}
						}
					}
				}
			}
		}
	}
	JOINT RightUpLeg_virtual
	{
		OFFSET 0.000000 0.000000 0.000000
		CHANNELS 3 Xrotation Yrotation Zrotation
		JOINT RightUpLeg
		{
			OFFSET -10.205400 -3.823500 0.005500
			CHANNELS 3 Xrotation Yrotation Zrotation
			JOINT RightLeg
			{
				OFFSET -0.708756 -12.982134 0.610632
				CHANNELS 3 Xrotation Yrotation Zrotation
				JOINT RightFoot
				{
					OFFSET 0.708754 -10.717769 -1.945823
					CHANNELS 3 Xrotation Yrotation Zrotation
					JOINT RightToeBase
					{
						OFFSET -0.108140 -7.191069 7.372968
						CHANNELS 3 Xrotation Yrotation Zrotation
						JOINT RightToe_End
						{
							OFFSET -0.070227 0.081735 4.479403
							CHANNELS 3 Xrotation Yrotation Zrotation
							End Site
							{
								OFFSET 0 0 0
							}
						}
					}
				}
			}
		}
	}
	JOINT Spine_virtual
	{
		OFFSET 0.000000 0.000000 0.000000
		CHANNELS 3 Xrotation Yrotation Zrotation
		JOINT Spine
		{
			OFFSET 0.000000 6.876099 0.125700
			CHANNELS 3 Xrotation Yrotation Zrotation
			JOINT Spine1
			{
				OFFSET 0.000000 5.730043 0.104720
				CHANNELS 3 Xrotation Yrotation Zrotation
				JOINT Spine1_split
				{
					OFFSET 0.000000 5.730043 0.104720
					CHANNELS 3 Xrotation Yrotation Zrotation
					JOINT Spine2
					{
						OFFSET 0.000000 5.730043 0.104720
						CHANNELS 3 Xrotation Yrotation Zrotation
						JOINT Neck_virtual
						{
							OFFSET 0.000000 0.000000 0.000000
							CHANNELS 3 Xrotation Yrotation Zrotation
							JOINT Neck
							{
								OFFSET 0.000000 10.314075 0.188496
								CHANNELS 3 Xrotation Yrotation Zrotation
								JOINT Head
								{
									OFFSET 0.000000 7.643700 -2.377400
									CHANNELS 3 Xrotation Yrotation Zrotation
									JOINT HeadTop_End
									{
										OFFSET 0.000000 43.788605 -13.619600
										CHANNELS 3 Xrotation Yrotation Zrotation
										End Site
										{
											OFFSET 0 0 0
										}
									}
								}
							}
						}
						JOINT LeftShoulder_virtual
						{
							OFFSET 0.000000 0.000000 0.000000
							CHANNELS 3 Xrotation Yrotation Zrotation
							JOINT LeftShoulder
							{
								OFFSET 2.196100 4.412489 0.087492
								CHANNELS 3 Xrotation Yrotation Zrotation
								JOINT LeftShoulder_split
								{
									OFFSET 2.196100 4.412489 0.087492
									CHANNELS 3 Xrotation Yrotation Zrotation
									JOINT LeftArm
									{
										OFFSET 8.771219 -2.981674 -0.026999
										CHANNELS 3 Xrotation Yrotation Zrotation
										JOINT LeftForeArm
										{
											OFFSET 8.512804 0.000000 -0.000000
											CHANNELS 3 Xrotation Yrotation Zrotation
											JOINT LeftHand
											{
												OFFSET 18.484802 0.000000 -0.000000
												CHANNELS 3 Xrotation Yrotation Zrotation
												End Site
												{
													OFFSET 0 0 0
												}
											}
										}
									}
								}
							}
						}
						JOINT RightShoulder_virtual
						{
							OFFSET 0.000000 0.000000 0.000000
							CHANNELS 3 Xrotation Yrotation Zrotation
							JOINT RightShoulder
							{
								OFFSET -2.196100 4.412496 0.070690
								CHANNELS 3 Xrotation Yrotation Zrotation
								JOINT RightShoulder_split
								{
									OFFSET -2.196100 4.412496 0.070690
									CHANNELS 3 Xrotation Yrotation Zrotation
									JOINT RightArm
									{
										OFFSET -8.771282 -2.981682 -0.094208
										CHANNELS 3 Xrotation Yrotation Zrotation
										JOINT RightForeArm
										{
											OFFSET -8.494598 0.000000 0.000000
											CHANNELS 3 Xrotation Yrotation Zrotation
											JOINT RightHand
											{
												OFFSET -18.483803 0.000000 0.000001
												CHANNELS 3 Xrotation Yrotation Zrotation
												End Site
												{
													OFFSET 0 0 0
												}
											}
										}
									}
								}
							}
						}
					}
				}
			}
		}
	}
}
MOTION
Frames: 7
Frame Time: 0.03333333
0.997047 32.544250 1.471614 0.000000 0.000000 0.000000 -31.835081 -41.598943 -20.456222 -0.957024 9.910475 5.025674 41.514416 0.674376 -3.138660 -14.930286 5.820521 3.536148 -6.218030 0.076950 0.151624 0.000000 0.000000 0.000000 -29.351997 -37.445460 -18.327581 21.130531 -11.596165 -6.307747 25.874307 8.414811 -6.186994 -24.142951 -14.673801 6.774132 -2.917272 0.260778 0.288251 0.000000 0.000000 0.000000 -31.747580 -39.297879 -20.551399 11.964325 -5.242939 0.277184 2.788225 -2.092827 0.287383 0.452670 1.890777 -0.006895 0.000000 0.000000 0.000000 2.877009 -2.148992 -0.002417 0.397878 0.679034 -1.842326 -6.783202 -2.254169 5.116003 0.000000 0.000000 0.000000 3.291095 -2.344474 0.168821 0.295536 -17.449796 -10.503678 0.376385 -0.295046 -0.687040 -19.843696 2.233572 -38.642277 2.612042 -66.550324 3.216126 0.000000 0.000000 0.000000 2.910417 -2.157063 0.185131 1.023684 10.923739 15.393911 0.728138 1.716669 -0.981410 -10.516683 -5.537168 62.393819 -0.343577 41.869319 1.280322 0.000000 0.000000 0.000000 
1.225974 32.571930 1.778013 0.000000 0.000000 0.000000 -32.772945 -43.617462 -22.211417 1.157848 11.477999 5.590368 39.686821 0.504822 -5.048673 -16.636954 7.298510 7.152400 -6.244291 -0.056776 0.402613 0.000000 0.000000 0.000000 -30.243712 -39.230414 -19.941101 20.000821 -11.264255 -7.073938 25.893087 8.637719 -7.217476 -22.174602 -14.672595 8.459670 -2.806966 0.227605 -0.093169 0.000000 0.000000 0.000000 -32.769567 -40.977993 -22.199920 11.995892 -5.288893 0.254285 2.807999 -2.086231 0.282098 0.420674 1.834680 0.016181 0.000000 0.000000 0.000000 2.869437 -2.131365 0.001804 0.489326 0.628541 -1.816638 -6.902587 -2.162220 5.011538 0.000000 0.000000 0.000000 3.290536 -2.308554 0.162785 0.328671 -17.537305 -10.473620 0.191451 -0.248000 -0.686703 -19.618641 2.143795 -38.472243 2.653945 -66.696879 3.226224 0.000000 0.000000 0.000000 2.990895 -2.127875 0.170450 1.031323 10.956057 15.517669 0.780003 1.657434 -1.087980 -10.582039 -5.576608 62.539084 -0.299356 41.780766 1.270013 0.000000 0.000000 0.000000 
1.472434 32.590336 2.101974 0.000000 0.000000 0.000000 -33.797176 -45.505083 -23.951894 3.046662 12.580988 5.823297 38.157774 0.348789 -6.618028 -18.369346 8.736991 10.026941 -6.156861 -0.144633 0.504214 0.000000 0.000000 0.000000 -31.153791 -41.034212 -21.535030 19.022664 -10.764952 -7.618481 26.106660 8.108609 -8.337978 -20.703060 -15.081425 8.989911 -2.245895 0.196563 -0.205797 0.000000 0.000000 0.000000 -33.839745 -42.649532 -23.890509 11.965563 -5.297747 0.170847 2.829298 -2.076639 0.290205 0.437763 1.776087 0.088445 0.000000 0.000000 0.000000 2.884374 -2.112828 0.011183 0.590822 0.592654 -1.810555 -7.042260 -2.058222 4.875805 0.000000 0.000000 0.000000 3.315119 -2.274148 0.169374 0.380867 -17.575668 -10.368126 -0.009131 -0.260240 -0.770632 -19.450068 2.065591 -38.339522 2.704930 -66.747887 3.263039 0.000000 0.000000 0.000000 3.091297 -2.095790 0.167737 1.056504 11.013316 15.636834 0.876658 1.616586 -1.148302 -10.593913 -5.611504 62.613560 -0.256883 41.853982 1.259334 0.000000 0.000000 0.000000 
1.727389 32.617283 2.442011 0.000000 0.000000 0.000000 -34.868334 -47.181256 -25.644808 4.682300 13.207667 5.650804 36.905547 0.275001 -7.716420 -19.823070 10.119528 12.104055 -5.809799 -0.157397 0.419611 0.000000 0.000000 0.000000 -32.198687 -42.892741 -23.197144 18.145161 -10.205319 -7.748990 26.751155 6.843642 -9.448308 -19.751645 -15.769995 8.404061 -1.621736 0.177224 -0.064380 0.000000 0.000000 0.000000 -34.998303 -44.343774 -25.630812 11.851176 -5.275079 0.057745 2.854793 -2.077908 0.310718 0.531617 1.693490 0.175839 0.000000 0.000000 0.000000 2.936868 -2.100664 0.030995 0.671407 0.565986 -1.810632 -7.206825 -1.960085 4.734000 0.000000 0.000000 0.000000 3.362508 -2.251800 0.186060 0.443074 -17.587032 -10.220268 -0.174014 -0.310238 -0.922141 -19.389203 2.046696 -38.267217 2.750062 -66.717821 3.325153 0.000000 0.000000 0.000000 3.189334 -2.073214 0.176421 1.094930 11.087622 15.745019 1.019050 1.596870 -1.168702 -10.560955 -5.670970 62.588882 -0.233905 42.043301 1.250709 0.000000 0.000000 0.000000 
1.994438 32.675140 2.783143 0.000000 0.000000 0.000000 -36.037632 -48.708446 -27.408342 6.204524 13.531860 5.040690 35.652303 0.537874 -8.339580 -20.895186 11.453870 13.547354 -5.343147 -0.090999 0.171647 0.000000 0.000000 0.000000 -33.371003 -44.789580 -24.945254 17.311907 -9.700426 -7.417381 27.893442 5.197641 -10.367576 -19.181917 -16.418738 7.406094 -1.542008 0.185196 0.230115 0.000000 0.000000 0.000000 -36.228416 -46.051898 -27.435150 11.685367 -5.231920 -0.038176 2.873965 -2.091580 0.336358 0.634353 1.590201 0.271524 0.000000 0.000000 0.000000 3.029911 -2.102140 0.058949 0.708039 0.548337 -1.808818 -7.377593 -1.867832 4.623087 0.000000 0.000000 0.000000 3.421504 -2.246085 0.206813 0.498742 -17.575414 -10.076075 -0.267876 -0.411267 -1.057835 -19.451814 2.089312 -38.270609 2.776045 -66.635114 3.407027 0.000000 0.000000 0.000000 3.270443 -2.070369 0.193077 1.134660 11.166417 15.853747 1.149825 1.635558 -1.146049 -10.514191 -5.771262 62.469347 -0.246989 42.303326 1.254421 0.000000 0.000000 0.000000 
2.282267 32.767792 3.121319 0.000000 0.000000 0.000000 -37.436086 -50.240993 -29.398572 7.630430 13.724776 4.087737 34.297651 1.140060 -8.544908 -21.508426 12.729944 14.379901 -4.878073 0.036900 -0.169263 0.000000 0.000000 0.000000 -34.763313 -46.722059 -26.879250 16.496217 -9.399067 -6.594593 29.606223 3.438507 -10.949551 -18.889301 -16.809464 6.481018 -2.239045 0.205831 0.606981 0.000000 0.000000 0.000000 -37.582634 -47.815805 -29.367327 11.502120 -5.188429 -0.085378 2.880101 -2.118721 0.358359 0.766471 1.475979 0.287758 0.000000 0.000000 0.000000 3.148277 -2.114170 0.088002 0.704451 0.541102 -1.804259 -7.516817 -1.791015 4.572757 0.000000 0.000000 0.000000 3.472224 -2.254561 0.222743 0.529872 -17.567906 -10.000335 -0.262057 -0.553857 -1.107694 -19.607967 2.177817 -38.341035 2.773043 -66.531008 3.495720 0.000000 0.000000 0.000000 3.319436 -2.086494 0.205434 1.167692 11.240303 15.954371 1.259043 1.755172 -1.092262 -10.462327 -5.906021 62.317157 -0.296788 42.560043 1.279799 0.000000 0.000000 0.000000 
2.577088 32.874420 3.442616 0.000000 0.000000 0.000000 -39.157013 -51.909800 -31.703040 8.996867 14.031638 3.021534 33.001705 1.931576 -8.563152 -21.724013 13.795654 14.647505 -4.523878 0.158516 -0.486569 0.000000 0.000000 0.000000 -36.441426 -48.700748 -29.094004 15.976077 -9.457495 -5.325067 31.770604 1.671459 -11.042125 -19.164970 -16.898078 5.474874 -3.279223 0.218345 1.069256 0.000000 0.000000 0.000000 -39.139118 -49.607770 -31.511078 11.343758 -5.144883 -0.061945 2.874409 -2.148220 0.363376 0.852411 1.326306 0.259733 0.000000 0.000000 0.000000 3.265723 -2.130344 0.109403 0.683925 0.535148 -1.801675 -7.582930 -1.726742 4.586682 0.000000 0.000000 0.000000 3.508493 -2.270826 0.220158 0.527289 -17.566084 -10.026168 -0.186108 -0.694239 -1.039800 -19.819503 2.279390 -38.474920 2.735110 -66.439525 3.570668 0.000000 0.000000 0.000000 3.339992 -2.111794 0.200671 1.186408 11.307975 16.051196 1.332834 1.926992 -1.031110 -10.387601 -6.037069 62.216774 -0.363876 42.720286 1.325637 0.000000 0.000000 0.000000 
